<svg width="204" height="204" viewBox="0 0 204 204" fill="none" xmlns="http://www.w3.org/2000/svg">
<path d="M78.1726 0C72.5173 0 67.9328 4.5667 67.9328 10.2V44.3032L39.2546 27.8103C34.3569 24.9936 28.0943 26.6651 25.2666 31.5437L1.3736 72.7665C-1.45407 77.6451 0.223997 83.8834 5.12165 86.7L33.7342 103.155L5.12165 119.61C0.223991 122.427 -1.45407 128.665 1.37359 133.544L25.2666 174.767C28.0943 179.645 34.3569 181.317 39.2546 178.5L67.9328 162.007V193.8C67.9328 199.433 72.5173 204 78.1726 204H125.959C131.614 204 136.199 199.433 136.199 193.8V162.083L164.745 178.5C169.643 181.317 175.906 179.645 178.733 174.767L202.626 133.544C205.454 128.665 203.776 122.427 198.878 119.61L170.266 103.155L198.878 86.7C203.776 83.8833 205.454 77.6451 202.626 72.7665L178.733 31.5437C175.906 26.6651 169.643 24.9936 164.745 27.8103L136.199 44.2276V10.2C136.199 4.5667 131.614 0 125.959 0H78.1726Z" fill="#55CFF9"/>
</svg>
