<svg width="20" height="20" viewBox="0 0 20 20" fill="none" xmlns="http://www.w3.org/2000/svg">
<path d="M10.8565 1.66675C11.794 1.66925 12.2698 1.67425 12.6807 1.68591L12.8423 1.69175C13.029 1.69841 13.2132 1.70675 13.4357 1.71675C14.3223 1.75841 14.9273 1.89841 15.4582 2.10425C16.0082 2.31591 16.4715 2.60258 16.9348 3.06508C17.3587 3.48153 17.6866 3.98547 17.8957 4.54175C18.1015 5.07258 18.2415 5.67758 18.2832 6.56508C18.2932 6.78675 18.3015 6.97091 18.3082 7.15841L18.3132 7.32008C18.3257 7.73008 18.3307 8.20591 18.3323 9.14341L18.3332 9.76508V10.8567C18.3352 11.4646 18.3288 12.0724 18.314 12.6801L18.309 12.8417C18.3023 13.0292 18.294 13.2134 18.284 13.4351C18.2423 14.3226 18.1007 14.9267 17.8957 15.4584C17.6866 16.0147 17.3587 16.5186 16.9348 16.9351C16.5184 17.359 16.0144 17.6869 15.4582 17.8959C14.9273 18.1017 14.3223 18.2417 13.4357 18.2834L12.8423 18.3084L12.6807 18.3134C12.2698 18.3251 11.794 18.3309 10.8565 18.3326L10.2348 18.3334H9.14399C8.53587 18.3356 7.92776 18.3292 7.31982 18.3142L7.15816 18.3092C6.96033 18.3018 6.76255 18.2931 6.56482 18.2834C5.67816 18.2417 5.07316 18.1017 4.54149 17.8959C3.98551 17.6868 3.48186 17.3589 3.06566 16.9351C2.64144 16.5187 2.31325 16.0148 2.10399 15.4584C1.89816 14.9276 1.75816 14.3226 1.71649 13.4351L1.69149 12.8417L1.68732 12.6801C1.67196 12.0724 1.66502 11.4646 1.66649 10.8567V9.14341C1.66418 8.53558 1.67029 7.92775 1.68482 7.32008L1.69066 7.15841C1.69732 6.97091 1.70566 6.78675 1.71566 6.56508C1.75732 5.67758 1.89732 5.07341 2.10316 4.54175C2.3129 3.98525 2.64168 3.48128 3.06649 3.06508C3.48245 2.64137 3.98581 2.31348 4.54149 2.10425C5.07316 1.89841 5.67732 1.75841 6.56482 1.71675C6.78649 1.70675 6.97149 1.69841 7.15816 1.69175L7.31982 1.68675C7.92748 1.67194 8.53532 1.66555 9.14316 1.66758L10.8565 1.66675ZM9.99982 5.83341C8.89475 5.83341 7.83495 6.2724 7.05354 7.0538C6.27214 7.8352 5.83316 8.89501 5.83316 10.0001C5.83316 11.1052 6.27214 12.165 7.05354 12.9464C7.83495 13.7278 8.89475 14.1667 9.99982 14.1667C11.1049 14.1667 12.1647 13.7278 12.9461 12.9464C13.7275 12.165 14.1665 11.1052 14.1665 10.0001C14.1665 8.89501 13.7275 7.8352 12.9461 7.0538C12.1647 6.2724 11.1049 5.83341 9.99982 5.83341ZM9.99982 7.50008C10.3281 7.50003 10.6532 7.56464 10.9566 7.69022C11.2599 7.81581 11.5355 7.99991 11.7677 8.23202C11.9999 8.46413 12.1841 8.7397 12.3098 9.04299C12.4355 9.34628 12.5002 9.67136 12.5002 9.99966C12.5003 10.328 12.4357 10.6531 12.3101 10.9564C12.1845 11.2597 12.0004 11.5354 11.7683 11.7676C11.5362 11.9997 11.2606 12.1839 10.9573 12.3096C10.654 12.4353 10.329 12.5 10.0007 12.5001C9.33762 12.5001 8.70173 12.2367 8.23289 11.7678C7.76405 11.299 7.50066 10.6631 7.50066 10.0001C7.50066 9.33704 7.76405 8.70115 8.23289 8.23231C8.70173 7.76347 9.33762 7.50008 10.0007 7.50008M14.3757 4.58341C14.0994 4.58341 13.8344 4.69316 13.6391 4.88851C13.4437 5.08386 13.334 5.34881 13.334 5.62508C13.334 5.90135 13.4437 6.1663 13.6391 6.36165C13.8344 6.557 14.0994 6.66675 14.3757 6.66675C14.6519 6.66675 14.9169 6.557 15.1122 6.36165C15.3076 6.1663 15.4173 5.90135 15.4173 5.62508C15.4173 5.34881 15.3076 5.08386 15.1122 4.88851C14.9169 4.69316 14.6519 4.58341 14.3757 4.58341Z" fill="currentColor"/>
</svg>
