<?xml version="1.0" encoding="utf-8"?>
<!-- Generator: Adobe Illustrator 26.0.1, SVG Export Plug-In . SVG Version: 6.00 Build 0)  -->
<svg version="1.1" id="Слой_1" xmlns="http://www.w3.org/2000/svg" xmlns:xlink="http://www.w3.org/1999/xlink" x="0px" y="0px"
	 viewBox="0 0 375.3 177.5" style="enable-background:new 0 0 375.3 177.5;" xml:space="preserve">
<style type="text/css">
	.st0{fill:#3D8BFC;}
	.st1{fill:#FFFFFF;}
	.st2{fill:none;}
	.st3{fill:#55CFF9;}
	.st4{display:none;}
	.st5{display:inline;fill:#FF00FF;}
</style>
<g>
	<path class="st0" d="M84.2,35v41.4L62.6,39h0.1c1.1,0,2.4,0.1,3.7,0.2c2.6,0.3,5.2,0.6,7.8-0.1c2.6-0.7,4.8-2.3,6.9-3.8
		c0.5-0.4,1-0.8,1.6-1.1c0.4-0.3,0.8-0.2,1,0C83.8,34.2,84.2,34.5,84.2,35z"/>
	<path class="st1" d="M57.7,41.8C57.7,41.8,57.7,41.9,57.7,41.8l21.5,37.4l0,0L57.7,41.8z M87,87.2c-1,0-1.9,0.2-2.8,0.7l0.7,1.2
		l0.4,0.8l4.5,7.8v-9.7C89,87.4,88,87.2,87,87.2z"/>
</g>
<g>
	<path class="st0" d="M76.4,84.2l-41.4,0c-0.5,0-0.8-0.3-0.9-0.5c-0.1-0.2-0.2-0.6,0.1-1c0.4-0.5,0.8-1,1.1-1.6
		c1.5-2.1,3.1-4.2,3.8-6.9c0.7-2.6,0.4-5.3,0.2-7.8C39.1,65,39,63.7,39,62.5L76.4,84.2z"/>
	<path class="st2" d="M91.5,89.1l-1.7-1.3C89,87.4,88,87.2,87,87.2c-1,0-1.9,0.2-2.8,0.7c-0.2,0.1-0.5,0.3-0.7,0.4
		c-0.6,0.4-1.1,1-1.6,1.6h7.9l2.1,0h0.2v0C91.9,89.6,91.7,89.3,91.5,89.1z"/>
</g>
<g>
	<path class="st0" d="M79.2,79.2L41.9,57.6c1-0.6,2.2-1.1,3.4-1.7c2.3-1,4.8-2.1,6.7-4c1.9-1.9,3-4.3,4.1-6.7c0.5-1.2,1-2.3,1.6-3.3
		c0,0,0-0.1,0.1-0.1L79.2,79.2L79.2,79.2z"/>
	<path class="st2" d="M62.7,39h-0.1l21.6,37.4v0L62.7,39z M92.9,91.5l-1-1.7v0l-0.4-0.7l-1.7-1.3C89,87.4,88,87.2,87,87.2
		c-1,0-1.9,0.2-2.8,0.7c-0.2,0.1-0.5,0.3-0.7,0.4l1.4,0.8l1.3,0.8h0l3.6,2.1l3.3,1.9c0-0.2,0-0.3,0-0.5C93.1,92.7,93,92.1,92.9,91.5
		z"/>
</g>
<g>
	<path class="st0" d="M89.8,87.9C89,87.4,88,87.2,87,87.2c-1,0-1.9,0.2-2.8,0.7c-0.2,0.1-0.5,0.3-0.7,0.4c-0.6,0.4-1.1,0.9-1.6,1.6
		c-0.7,1-1.1,2.2-1.1,3.5c0,3.4,2.8,6.1,6.1,6.1c3.2,0,5.8-2.5,6.1-5.6c0-0.2,0-0.3,0-0.5c0-0.6-0.1-1.2-0.3-1.8
		c-0.2-0.6-0.5-1.2-0.8-1.7v0c-0.2-0.2-0.4-0.5-0.6-0.7L89.8,87.9z"/>
	<path class="st0" d="M73.7,132c0,2.2-0.6,4.2-1.7,5.9c-0.5,0.9-1.2,1.7-1.9,2.4c-7.1-2.3-13.6-5.9-19.2-10.7c0.2-1,0.5-2,1-2.9
		c1.9-3.7,5.8-6.3,10.2-6.3C68.5,120.5,73.7,125.7,73.7,132z"/>
	<path class="st0" d="M122.5,130.2c-5.6,4.6-12,8.2-19.1,10.3c-0.8-0.7-1.4-1.5-2-2.4c-1.1-1.8-1.8-3.8-1.8-6.1
		c0-6.3,5.2-11.5,11.5-11.5c4.6,0,8.6,2.7,10.4,6.6C122,128.1,122.3,129.1,122.5,130.2z"/>
	<path class="st0" d="M96.9,132c0,2.5,0.6,4.8,1.7,6.8c-3.7,0.8-7.6,1.3-11.6,1.3c-4.2,0-8.2-0.5-12.1-1.4c1.1-2,1.7-4.3,1.7-6.7
		c0-7.9-6.4-14.3-14.3-14.3c-5.3,0-9.9,2.9-12.4,7.1C41,116.2,35.1,104.4,34,91.4c0-0.5,0.2-0.9,0.4-1.1c0.2-0.2,0.5-0.5,1.1-0.5
		h40.3c-0.3,1.1-0.5,2.3-0.5,3.5c0,6.5,5.3,11.8,11.8,11.8c6.5,0,11.8-5.3,11.8-11.8c0-1.2-0.2-2.4-0.5-3.5h40.3
		c0.5,0,0.9,0.3,1.1,0.5c0.1,0.2,0.4,0.5,0.4,1.1c-1.1,13.3-7.1,25.1-16.2,33.8c-2.4-4.5-7.2-7.5-12.6-7.5
		C103.3,117.7,96.9,124.1,96.9,132z"/>
	<path class="st1" d="M52,126.8c-0.5,0.9-0.8,1.9-1,2.9c-0.2,0.8-0.2,1.5-0.2,2.3c0,0.4,0,0.8,0.1,1.1c4.9,3.9,10.5,7,16.5,9.2
		c1.1-0.5,2-1.2,2.9-2c0.7-0.7,1.4-1.5,1.9-2.4C64.6,135.7,57.7,131.9,52,126.8z M122.5,130.2c-0.2-1-0.5-2-0.9-3
		c-5.8,5-12.7,8.8-20.2,10.9c0.6,0.9,1.2,1.7,2,2.4c0.9,0.8,1.9,1.5,3,2c5.9-2.1,11.3-5,16.2-8.8c0.1-0.5,0.1-1.1,0.1-1.7
		C122.7,131.4,122.6,130.8,122.5,130.2z M91.5,89.1l-1.7-1.3C89,87.4,88,87.2,87,87.2c-1,0-1.9,0.2-2.8,0.7
		c-0.2,0.1-0.5,0.3-0.7,0.4c-0.6,0.4-1.1,1-1.6,1.6h10.1C91.9,89.6,91.7,89.3,91.5,89.1z M91.5,89.1l-1.7-1.3
		C89,87.4,88,87.2,87,87.2c-1,0-1.9,0.2-2.8,0.7c-0.2,0.1-0.5,0.3-0.7,0.4c-0.6,0.4-1.1,1-1.6,1.6h10.1
		C91.9,89.6,91.7,89.3,91.5,89.1z M91.5,89.1l-1.7-1.3C89,87.4,88,87.2,87,87.2c-1,0-1.9,0.2-2.8,0.7c-0.2,0.1-0.5,0.3-0.7,0.4
		c-0.6,0.4-1.1,1-1.6,1.6h10.1C91.9,89.6,91.7,89.3,91.5,89.1z"/>
</g>
<g>
	<rect x="89.8" y="34.8" class="st2" width="255.6" height="49.9"/>
	<path class="st3" d="M95.2,81.7c-2.5-2-3.8-4.1-3.8-6.4s0.8-4.2,2.4-5.8c1.6-1.6,3.5-2.4,5.8-2.4c2.1,0,3.6,0.5,4.7,1.6
		c1,1.1,2.2,1.7,3.6,1.7c1.4,0.1,2.2-0.3,2.4-1c0.2-0.7-1.3-1.7-4.5-3c-3.2-1.2-6.3-2.8-9.2-4.8s-4.4-5.2-4.4-9.7
		c0-4.5,1.6-8.4,4.8-11.6c3.2-3.2,6.9-4.8,11.2-4.8c4.2,0,7.9,0.9,11.1,2.8c3.2,1.9,4.8,3.9,4.8,6.2s-0.8,4.2-2.4,5.8
		c-1.6,1.6-3.5,2.4-5.8,2.4c-2.1,0-3.5-0.5-4.3-1.4c-0.8-1-1.7-1.5-2.8-1.5c-1.1-0.1-1.8,0.3-2,1c-0.2,0.8,1,1.7,3.7,2.8
		c2.7,1.1,5.7,2.6,9.2,4.6c3.5,2,5.2,5.3,5.2,10.1c0,4.5-1.6,8.4-4.8,11.6c-3.2,3.2-7.3,4.8-12.4,4.8
		C101.9,84.7,97.8,83.7,95.2,81.7z"/>
	<path class="st3" d="M148.9,57.5v20.4c0,1.9-0.7,3.5-2,4.8s-2.9,2-4.8,2c-1.9,0-3.5-0.7-4.8-2s-2-2.9-2-4.8V57.5h-0.7
		c-1.9,0-3.5-0.7-4.8-2c-1.3-1.3-2-2.9-2-4.8s0.7-3.5,2-4.8c1.3-1.3,2.9-2,4.8-2h0.7v-1.3c0-1.9,0.7-3.5,2-4.8c1.3-1.3,2.9-2,4.8-2
		c1.9,0,3.5,0.7,4.8,2c1.3,1.3,2,2.9,2,4.8v1.3h0.7c1.9,0,3.5,0.7,4.8,2c1.3,1.3,2,2.9,2,4.8s-0.7,3.5-2,4.8c-1.3,1.3-2.9,2-4.8,2
		H148.9z"/>
	<path class="st3" d="M173.3,58.5v19.3c0,1.9-0.7,3.5-2,4.8c-1.3,1.3-2.9,2-4.8,2c-1.9,0-3.5-0.7-4.8-2c-1.3-1.3-2-2.9-2-4.8V50.6
		c0-1.9,0.7-3.5,2-4.8c1.3-1.3,2.9-2,4.8-2c1.9,0,3.5,0.7,4.8,2c0.4,0.4,0.8,0.9,1.1,1.4c0.7-0.7,1.7-1.4,2.9-2.2
		c2.5-1.1,4.9-1.4,7-0.8s3.9,1.9,5,3.8c1.1,2,1.4,4,0.8,6c-0.6,2.1-1.9,3.6-3.8,4.8c-2.5,1.1-4.8,1.1-7-0.2
		C175.2,57.2,173.8,57.2,173.3,58.5z"/>
	<path class="st3" d="M212.1,84.7c-5.6,0-10.5-2-14.4-6c-4-4-6-8.8-6-14.4c0-5.7,2-10.5,6-14.5c4-4,8.8-6,14.4-6
		c5.7,0,10.5,2,14.5,6c4,4,6,8.8,6,14.5c0,5.6-2,10.5-6,14.4C222.6,82.7,217.8,84.7,212.1,84.7z M217,69.1c1.3-1.3,2-2.9,2-4.8
		s-0.7-3.5-2-4.8c-1.3-1.3-2.9-2-4.8-2c-1.9,0-3.5,0.7-4.8,2c-1.3,1.3-2,2.9-2,4.8s0.7,3.5,2,4.8c1.3,1.3,2.9,2,4.8,2
		C214,71.1,215.6,70.4,217,69.1z"/>
	<path class="st3" d="M243.1,84.7c-1.9,0-3.5-0.7-4.8-2c-1.3-1.3-2-2.9-2-4.8V41.6c0-1.9,0.7-3.5,2-4.8c1.3-1.3,2.9-2,4.8-2
		c1.9,0,3.5,0.7,4.8,2c1.3,1.3,2,2.9,2,4.8v36.2c0,1.9-0.7,3.5-2,4.8C246.6,84,245,84.7,243.1,84.7z"/>
	<path class="st3" d="M260.8,84.7c-1.9,0-3.5-0.7-4.8-2c-1.3-1.3-2-2.9-2-4.8V41.6c0-1.9,0.7-3.5,2-4.8c1.3-1.3,2.9-2,4.8-2
		c1.9,0,3.5,0.7,4.8,2c1.3,1.3,2,2.9,2,4.8v36.2c0,1.9-0.7,3.5-2,4.8C264.3,84,262.7,84.7,260.8,84.7z"/>
	<path class="st3" d="M290.1,70.9c0.5,0.1,1,0.2,1.6,0.2c1.9,0,3.6-0.6,5.3-1.9c1.6-1.3,3.4-1.9,5.3-1.9c1.9,0,3.5,0.7,4.8,2
		c1.3,1.3,2,2.9,2,4.8c0,0.5,0,1-0.1,1.5c-0.2,1.3-1.1,2.8-2.8,4.5c-4,3.2-8.8,4.8-14.5,4.8c-5.6,0-10.5-2-14.4-6c-4-4-6-8.8-6-14.4
		c0-5.7,2-10.5,6-14.5c4-4,8.8-6,14.4-6c5.7,0,10.4,1.4,14.1,4.3c1.9,1.9,2.9,3.8,2.8,5.7c0.1,2-0.6,3.6-2,4.5L290.1,70.9z
		 M294.1,58c-0.8-0.4-1.6-0.6-2.4-0.6c-1.9,0-3.5,0.7-4.8,2c-1.3,1.3-2,2.9-2,4.8v0.4L294.1,58z"/>
	<path class="st3" d="M326.1,58.5v19.3c0,1.9-0.7,3.5-2,4.8c-1.3,1.3-2.9,2-4.8,2c-1.9,0-3.5-0.7-4.8-2c-1.3-1.3-2-2.9-2-4.8V50.6
		c0-1.9,0.7-3.5,2-4.8c1.3-1.3,2.9-2,4.8-2c1.9,0,3.5,0.7,4.8,2c0.4,0.4,0.8,0.9,1.1,1.4c0.7-0.7,1.7-1.4,2.9-2.2
		c2.5-1.1,4.9-1.4,7-0.8s3.9,1.9,5,3.8c1.1,2,1.4,4,0.8,6c-0.6,2.1-1.9,3.6-3.8,4.8c-2.5,1.1-4.8,1.1-7-0.2
		C328,57.2,326.7,57.2,326.1,58.5z"/>
</g>
<g>
	<rect x="142.8" y="87" class="st2" width="171" height="56"/>
	<path class="st3" d="M174.7,118.1c0.3-0.5,0.7-1,1.1-1.4c1.6-1.6,3.5-2.4,5.8-2.4c2.3,0,4.2,0.8,5.8,2.4c1.6,1.6,2.4,3.5,2.4,5.8
		c0,0.6-0.1,1.2-0.2,1.8c-0.2,1.6-1.3,3.4-3.3,5.4c-4.8,4.8-10.6,7.2-17.4,7.2c-6.8,0-12.5-2.4-17.3-7.2c-4.8-4.8-7.2-10.6-7.2-17.3
		c0-6.8,2.4-12.6,7.2-17.4c4.8-4.8,10.6-7.2,17.3-7.2c6.8,0,12.6,2.4,17.4,7.2c2,2,3.1,3.8,3.3,5.4c0.1,0.6,0.2,1.2,0.2,1.8
		c0,2.3-0.8,4.2-2.4,5.8c-1.6,1.6-3.5,2.4-5.8,2.4c-2.3,0-4.2-0.8-5.8-2.4c-0.4-0.4-0.8-0.9-1.1-1.3c-1.6-1.6-3.5-2.4-5.8-2.4
		c-2.3,0-4.2,0.8-5.8,2.4c-1.6,1.6-2.4,3.5-2.4,5.8s0.8,4.2,2.4,5.8c1.6,1.6,3.5,2.4,5.8,2.4C171.2,120.5,173.2,119.7,174.7,118.1z"
		/>
	<path class="st3" d="M222.8,134.9c-2.7,1.3-5.6,2-8.9,2c-5.6,0-10.5-2-14.4-6c-4-4-6-8.8-6-14.4c0-5.7,2-10.5,6-14.5
		c4-4,8.8-6,14.4-6c3.2,0,6.2,0.6,8.9,1.9c1.3-1.3,2.9-1.9,4.8-1.9c1.9,0,3.5,0.7,4.8,2c1.3,1.3,2,2.9,2,4.8V130
		c0,1.9-0.7,3.5-2,4.8c-1.3,1.3-2.9,2-4.8,2C225.7,136.9,224.1,136.2,222.8,134.9z M218.8,121.2c1.3-1.3,2-2.9,2-4.8s-0.7-3.5-2-4.8
		c-1.3-1.3-2.9-2-4.8-2c-1.9,0-3.5,0.7-4.8,2c-1.3,1.3-2,2.9-2,4.8s0.7,3.5,2,4.8c1.3,1.3,2.9,2,4.8,2
		C215.8,123.2,217.4,122.6,218.8,121.2z"/>
	<path class="st3" d="M252.1,110.7V130c0,1.9-0.7,3.5-2,4.8c-1.3,1.3-2.9,2-4.8,2c-1.9,0-3.5-0.7-4.8-2c-1.3-1.3-2-2.9-2-4.8v-27.2
		c0-1.9,0.7-3.5,2-4.8c1.3-1.3,2.9-2,4.8-2c1.9,0,3.5,0.7,4.8,2c0.4,0.4,0.8,0.9,1.1,1.4c0.7-0.7,1.7-1.4,2.9-2.2
		c2.5-1.1,4.9-1.4,7-0.8s3.9,1.9,5,3.8c1.1,2,1.4,4,0.8,6c-0.6,2.1-1.9,3.6-3.8,4.8c-2.5,1.1-4.8,1.1-7-0.2
		C254,109.4,252.6,109.4,252.1,110.7z"/>
	<path class="st3" d="M289.4,123.1c0.5,0.1,1,0.2,1.6,0.2c1.9,0,3.6-0.6,5.3-1.9c1.6-1.3,3.4-1.9,5.3-1.9c1.9,0,3.5,0.7,4.8,2
		c1.3,1.3,2,2.9,2,4.8c0,0.5,0,1-0.1,1.5c-0.2,1.3-1.1,2.8-2.8,4.5c-4,3.2-8.8,4.8-14.5,4.8c-5.6,0-10.5-2-14.4-6c-4-4-6-8.8-6-14.4
		c0-5.7,2-10.5,6-14.5c4-4,8.8-6,14.4-6c5.7,0,10.4,1.4,14.1,4.3c1.9,1.9,2.9,3.8,2.8,5.7c0.1,2-0.6,3.6-2,4.5L289.4,123.1z
		 M293.3,110.2c-0.8-0.4-1.6-0.6-2.4-0.6c-1.9,0-3.5,0.7-4.8,2c-1.3,1.3-2,2.9-2,4.8v0.4L293.3,110.2z"/>
</g>
<g>
	<path class="st0" d="M89.8,87.9C89,87.4,88,87.2,87,87.2c-1,0-1.9,0.2-2.8,0.7c-0.2,0.1-0.5,0.3-0.7,0.4c-0.6,0.4-1.1,0.9-1.6,1.6
		c-0.7,1-1.1,2.2-1.1,3.5c0,3.4,2.8,6.1,6.1,6.1c3.2,0,5.8-2.5,6.1-5.6c0-0.2,0-0.3,0-0.5c0-0.6-0.1-1.2-0.3-1.8
		c-0.2-0.6-0.5-1.2-0.8-1.7v0c-0.2-0.2-0.4-0.5-0.6-0.7L89.8,87.9z"/>
	<path class="st2" d="M89.8,87.9l1.7,1.3C91,88.6,90.5,88.2,89.8,87.9z M75.7,89.8C75.7,89.8,75.7,89.8,75.7,89.8"/>
</g>
<g>
	<path class="st0" d="M73.7,132c0,2.2-0.6,4.2-1.7,5.9c-0.5,0.9-1.2,1.7-1.9,2.4c-0.8,0.8-1.8,1.5-2.9,2c-1.5,0.8-3.2,1.2-5.1,1.2
		c-6,0-10.9-4.5-11.4-10.4c0-0.4-0.1-0.8-0.1-1.1c0-0.8,0.1-1.6,0.2-2.3c0.2-1,0.5-2,1-2.9c1.9-3.7,5.8-6.3,10.2-6.3
		C68.5,120.5,73.7,125.7,73.7,132z"/>
</g>
<g>
	<path class="st0" d="M122.7,132c0,0.6,0,1.1-0.1,1.7c-0.8,5.5-5.6,9.8-11.4,9.8c-1.7,0-3.3-0.4-4.8-1.1c-1.1-0.5-2.1-1.2-3-2
		c-0.8-0.7-1.4-1.5-2-2.4c-1.1-1.8-1.8-3.8-1.8-6.1c0-6.3,5.2-11.5,11.5-11.5c4.6,0,8.6,2.7,10.4,6.6c0.4,0.9,0.8,1.9,0.9,3
		C122.6,130.8,122.7,131.4,122.7,132z"/>
</g>
<g class="st4">
	<rect x="17.8" class="st5" width="357.5" height="34"/>
	<rect y="143.5" class="st5" width="375.3" height="34"/>
	
		<rect x="-71.8" y="71.8" transform="matrix(-1.836970e-16 1 -1 -1.836970e-16 105.7713 71.7659)" class="st5" width="177.5" height="34"/>
	
		<rect x="269.6" y="71.8" transform="matrix(-1.836970e-16 1 -1 -1.836970e-16 447.094 -269.5567)" class="st5" width="177.5" height="34"/>
</g>
<g>
</g>
<g>
</g>
<g>
</g>
<g>
</g>
<g>
</g>
<g>
</g>
<g>
</g>
<g>
</g>
<g>
</g>
<g>
</g>
<g>
</g>
<g>
</g>
<g>
</g>
<g>
</g>
<g>
</g>
</svg>
