<svg width="316" height="116" viewBox="0 0 316 116" fill="none" xmlns="http://www.w3.org/2000/svg">
<g clip-path="url(#clip0_1775_34)">
<path d="M55.2 3.98934V45.3893L33.6 7.98934H33.7C34.8 7.98934 36.1 8.08934 37.4 8.18934C40 8.48934 42.6 8.78934 45.2 8.08934C47.8 7.38934 50 5.78934 52.1 4.28934C52.6 3.88934 53.1 3.48934 53.7 3.18934C54.1 2.88934 54.5 2.98934 54.7 3.18934C54.8 3.18934 55.2 3.48934 55.2 3.98934Z" fill="white"/>
<path d="M58 56.1894C57 56.1894 56.1 56.3894 55.2 56.8894L55.9 58.0894L56.3 58.8894L60.8 66.6894V56.9894C60 56.3894 59 56.1894 58 56.1894Z" fill="white"/>
<path d="M47.4 53.1894H6C5.5 53.1894 5.2 52.8894 5.1 52.6894C5 52.4894 4.9 52.0894 5.2 51.6894C5.6 51.1894 6 50.6894 6.3 50.0894C7.8 47.9894 9.4 45.8894 10.1 43.1894C10.8 40.5894 10.5 37.8894 10.3 35.3894C10.1 33.9894 10 32.6894 10 31.4894L47.4 53.1894Z" fill="white"/>
<path d="M50.2 48.1894L12.9 26.5894C13.9 25.9894 15.1 25.4894 16.3 24.8894C18.6 23.8894 21.1 22.7894 23 20.8894C24.9 18.9894 26 16.5894 27.1 14.1894C27.6 12.9894 28.1 11.8894 28.7 10.8894C28.7 10.8894 28.7 10.7894 28.8 10.7894L50.2 48.1894Z" fill="white"/>
<path d="M60.8 56.8893C60 56.3893 59 56.1893 58 56.1893C57 56.1893 56.1 56.3893 55.2 56.8893C55 56.9893 54.7 57.1893 54.5 57.2893C53.9 57.6893 53.4 58.1893 52.9 58.8893C52.2 59.8893 51.8 61.0893 51.8 62.3893C51.8 65.7893 54.6 68.4893 57.9 68.4893C61.1 68.4893 63.7 65.9893 64 62.8893C64 62.6893 64 62.5893 64 62.3893C64 61.7893 63.9 61.1893 63.7 60.5893C63.5 59.9893 63.2 59.3893 62.9 58.8893C62.7 58.6893 62.5 58.3893 62.3 58.1893L60.8 56.8893Z" fill="white"/>
<path d="M44.7 100.989C44.7 103.189 44.1 105.189 43 106.889C42.5 107.789 41.8 108.589 41.1 109.289C34 106.989 27.5 103.389 21.9 98.5893C22.1 97.5893 22.4 96.5893 22.9 95.6893C24.8 91.9893 28.7 89.3893 33.1 89.3893C39.5 89.4893 44.7 94.6893 44.7 100.989Z" fill="white"/>
<path d="M93.5 99.1894C87.9 103.789 81.5 107.389 74.4 109.489C73.6 108.789 73 107.989 72.4 107.089C71.3 105.289 70.6 103.289 70.6 100.989C70.6 94.6894 75.8 89.4894 82.1 89.4894C86.7 89.4894 90.7 92.1894 92.5 96.0894C93 97.0894 93.3 98.0894 93.5 99.1894Z" fill="white"/>
<path d="M67.9 100.989C67.9 103.489 68.5 105.789 69.6 107.789C65.9 108.589 62 109.089 58 109.089C53.8 109.089 49.8 108.589 45.9 107.689C47 105.689 47.6 103.389 47.6 100.989C47.6 93.0893 41.2 86.6893 33.3 86.6893C28 86.6893 23.4 89.5893 20.9 93.7893C12 85.1893 6.1 73.3893 5 60.3893C5 59.8893 5.2 59.4893 5.4 59.2893C5.6 59.0893 5.9 58.7893 6.5 58.7893H46.8C46.5 59.8893 46.3 61.0893 46.3 62.2893C46.3 68.7893 51.6 74.0893 58.1 74.0893C64.6 74.0893 69.9 68.7893 69.9 62.2893C69.9 61.0893 69.7 59.8893 69.4 58.7893H109.7C110.2 58.7893 110.6 59.0893 110.8 59.2893C110.9 59.4893 111.2 59.7893 111.2 60.3893C110.1 73.6893 104.1 85.4893 95 94.1893C92.6 89.6893 87.8 86.6893 82.4 86.6893C74.3 86.6893 67.9 93.0893 67.9 100.989Z" fill="white"/>
<path d="M23 95.7893C22.5 96.6893 22.2 97.6893 22 98.6893C21.8 99.4893 21.8 100.189 21.8 100.989C21.8 101.389 21.8 101.789 21.9 102.089C26.8 105.989 32.4 109.089 38.4 111.289C39.5 110.789 40.4 110.089 41.3 109.289C42 108.589 42.7 107.789 43.2 106.889C35.6 104.689 28.7 100.889 23 95.7893ZM93.5 99.1893C93.3 98.1893 93 97.1893 92.6 96.1893C86.8 101.189 79.9 104.989 72.4 107.089C73 107.989 73.6 108.789 74.4 109.489C75.3 110.289 76.3 110.989 77.4 111.489C83.3 109.389 88.7 106.489 93.6 102.689C93.7 102.189 93.7 101.589 93.7 100.989C93.7 100.389 93.6 99.7893 93.5 99.1893ZM62.5 58.0893L60.8 56.7893C60 56.3893 59 56.1893 58 56.1893C57 56.1893 56.1 56.3893 55.2 56.8893C55 56.9893 54.7 57.1893 54.5 57.2893C53.9 57.6893 53.4 58.2893 52.9 58.8893H63C62.9 58.5893 62.7 58.2893 62.5 58.0893ZM62.5 58.0893L60.8 56.7893C60 56.3893 59 56.1893 58 56.1893C57 56.1893 56.1 56.3893 55.2 56.8893C55 56.9893 54.7 57.1893 54.5 57.2893C53.9 57.6893 53.4 58.2893 52.9 58.8893H63C62.9 58.5893 62.7 58.2893 62.5 58.0893ZM62.5 58.0893L60.8 56.7893C60 56.3893 59 56.1893 58 56.1893C57 56.1893 56.1 56.3893 55.2 56.8893C55 56.9893 54.7 57.1893 54.5 57.2893C53.9 57.6893 53.4 58.2893 52.9 58.8893H63C62.9 58.5893 62.7 58.2893 62.5 58.0893Z" fill="white"/>
<path d="M66.2 50.6894C63.7 48.6894 62.4 46.5894 62.4 44.2894C62.4 41.9894 63.2 40.0894 64.8 38.4894C66.4 36.8894 68.3 36.0894 70.6 36.0894C72.7 36.0894 74.2 36.5894 75.3 37.6894C76.3 38.7894 77.5 39.3894 78.9 39.3894C80.3 39.4894 81.1 39.0894 81.3 38.3894C81.5 37.6894 80 36.6894 76.8 35.3894C73.6 34.1894 70.5 32.5894 67.6 30.5894C64.7 28.5894 63.2 25.3894 63.2 20.8894C63.2 16.3894 64.8 12.4894 68 9.28944C71.2 6.08944 74.9 4.48944 79.2 4.48944C83.4 4.48944 87.1 5.38944 90.3 7.28944C93.5 9.18944 95.1 11.1894 95.1 13.4894C95.1 15.7894 94.3 17.6894 92.7 19.2894C91.1 20.8894 89.2 21.6894 86.9 21.6894C84.8 21.6894 83.4 21.1894 82.6 20.2894C81.8 19.2894 80.9 18.7894 79.8 18.7894C78.7 18.6894 78 19.0894 77.8 19.7894C77.6 20.5894 78.8 21.4894 81.5 22.5894C84.2 23.6894 87.2 25.1894 90.7 27.1894C94.2 29.1894 95.9 32.4894 95.9 37.2894C95.9 41.7894 94.3 45.6894 91.1 48.8894C87.9 52.0894 83.8 53.6894 78.7 53.6894C72.9 53.6894 68.8 52.6894 66.2 50.6894Z" fill="white"/>
<path d="M119.9 26.4894V46.8894C119.9 48.7894 119.2 50.3894 117.9 51.6894C116.6 52.9894 115 53.6894 113.1 53.6894C111.2 53.6894 109.6 52.9894 108.3 51.6894C107 50.3894 106.3 48.7894 106.3 46.8894V26.4894H105.6C103.7 26.4894 102.1 25.7894 100.8 24.4894C99.5 23.1894 98.8 21.5894 98.8 19.6894C98.8 17.7894 99.5 16.1894 100.8 14.8894C102.1 13.5894 103.7 12.8894 105.6 12.8894H106.3V11.5894C106.3 9.68943 107 8.08943 108.3 6.78943C109.6 5.48943 111.2 4.78943 113.1 4.78943C115 4.78943 116.6 5.48943 117.9 6.78943C119.2 8.08943 119.9 9.68943 119.9 11.5894V12.8894H120.6C122.5 12.8894 124.1 13.5894 125.4 14.8894C126.7 16.1894 127.4 17.7894 127.4 19.6894C127.4 21.5894 126.7 23.1894 125.4 24.4894C124.1 25.7894 122.5 26.4894 120.6 26.4894H119.9Z" fill="white"/>
<path d="M144.3 27.4894V46.7894C144.3 48.6894 143.6 50.2894 142.3 51.5894C141 52.8894 139.4 53.5894 137.5 53.5894C135.6 53.5894 134 52.8894 132.7 51.5894C131.4 50.2894 130.7 48.6894 130.7 46.7894V19.5894C130.7 17.6894 131.4 16.0894 132.7 14.7894C134 13.4894 135.6 12.7894 137.5 12.7894C139.4 12.7894 141 13.4894 142.3 14.7894C142.7 15.1894 143.1 15.6894 143.4 16.1894C144.1 15.4894 145.1 14.7894 146.3 13.9894C148.8 12.8894 151.2 12.5894 153.3 13.1894C155.4 13.7894 157.2 15.0894 158.3 16.9894C159.4 18.9894 159.7 20.9894 159.1 22.9894C158.5 25.0894 157.2 26.5894 155.3 27.7894C152.8 28.8894 150.5 28.8894 148.3 27.5894C146.2 26.1894 144.8 26.1894 144.3 27.4894Z" fill="white"/>
<path d="M183.1 53.6894C177.5 53.6894 172.6 51.6894 168.7 47.6894C164.7 43.6894 162.7 38.8894 162.7 33.2894C162.7 27.5894 164.7 22.7894 168.7 18.7894C172.7 14.7894 177.5 12.7894 183.1 12.7894C188.8 12.7894 193.6 14.7894 197.6 18.7894C201.6 22.7894 203.6 27.5894 203.6 33.2894C203.6 38.8894 201.6 43.7894 197.6 47.6894C193.6 51.6894 188.8 53.6894 183.1 53.6894ZM188 38.0894C189.3 36.7894 190 35.1894 190 33.2894C190 31.3894 189.3 29.7894 188 28.4894C186.7 27.1894 185.1 26.4894 183.2 26.4894C181.3 26.4894 179.7 27.1894 178.4 28.4894C177.1 29.7894 176.4 31.3894 176.4 33.2894C176.4 35.1894 177.1 36.7894 178.4 38.0894C179.7 39.3894 181.3 40.0894 183.2 40.0894C185 40.0894 186.6 39.3894 188 38.0894Z" fill="white"/>
<path d="M214.1 53.6894C212.2 53.6894 210.6 52.9894 209.3 51.6894C208 50.3894 207.3 48.7894 207.3 46.8894V10.5894C207.3 8.68943 208 7.08943 209.3 5.78943C210.6 4.48943 212.2 3.78943 214.1 3.78943C216 3.78943 217.6 4.48943 218.9 5.78943C220.2 7.08943 220.9 8.68943 220.9 10.5894V46.7894C220.9 48.6894 220.2 50.2894 218.9 51.5894C217.6 52.9894 216 53.6894 214.1 53.6894Z" fill="white"/>
<path d="M231.8 53.6894C229.9 53.6894 228.3 52.9894 227 51.6894C225.7 50.3894 225 48.7894 225 46.8894V10.5894C225 8.68943 225.7 7.08943 227 5.78943C228.3 4.48943 229.9 3.78943 231.8 3.78943C233.7 3.78943 235.3 4.48943 236.6 5.78943C237.9 7.08943 238.6 8.68943 238.6 10.5894V46.7894C238.6 48.6894 237.9 50.2894 236.6 51.5894C235.3 52.9894 233.7 53.6894 231.8 53.6894Z" fill="white"/>
<path d="M261.1 39.8894C261.6 39.9894 262.1 40.0894 262.7 40.0894C264.6 40.0894 266.3 39.4894 268 38.1894C269.6 36.8894 271.4 36.2894 273.3 36.2894C275.2 36.2894 276.8 36.9894 278.1 38.2894C279.4 39.5894 280.1 41.1894 280.1 43.0894C280.1 43.5894 280.1 44.0894 280 44.5894C279.8 45.8894 278.9 47.3894 277.2 49.0894C273.2 52.2894 268.4 53.8894 262.7 53.8894C257.1 53.8894 252.2 51.8894 248.3 47.8894C244.3 43.8894 242.3 39.0894 242.3 33.4894C242.3 27.7894 244.3 22.9894 248.3 18.9894C252.3 14.9894 257.1 12.9894 262.7 12.9894C268.4 12.9894 273.1 14.3894 276.8 17.2894C278.7 19.1894 279.7 21.0894 279.6 22.9894C279.7 24.9894 279 26.5894 277.6 27.4894L261.1 39.8894ZM265.1 26.9894C264.3 26.5894 263.5 26.3894 262.7 26.3894C260.8 26.3894 259.2 27.0894 257.9 28.3894C256.6 29.6894 255.9 31.2894 255.9 33.1894V33.5894L265.1 26.9894Z" fill="white"/>
<path d="M297.1 27.4894V46.7894C297.1 48.6894 296.4 50.2894 295.1 51.5894C293.8 52.8894 292.2 53.5894 290.3 53.5894C288.4 53.5894 286.8 52.8894 285.5 51.5894C284.2 50.2894 283.5 48.6894 283.5 46.7894V19.5894C283.5 17.6894 284.2 16.0894 285.5 14.7894C286.8 13.4894 288.4 12.7894 290.3 12.7894C292.2 12.7894 293.8 13.4894 295.1 14.7894C295.5 15.1894 295.9 15.6894 296.2 16.1894C296.9 15.4894 297.9 14.7894 299.1 13.9894C301.6 12.8894 304 12.5894 306.1 13.1894C308.2 13.7894 310 15.0894 311.1 16.9894C312.2 18.9894 312.5 20.9894 311.9 22.9894C311.3 25.0894 310 26.5894 308.1 27.7894C305.6 28.8894 303.3 28.8894 301.1 27.5894C299 26.1894 297.7 26.1894 297.1 27.4894Z" fill="white"/>
<path d="M145.7 87.0894C146 86.5894 146.4 86.0894 146.8 85.6894C148.4 84.0894 150.3 83.2894 152.6 83.2894C154.9 83.2894 156.8 84.0894 158.4 85.6894C160 87.2894 160.8 89.1894 160.8 91.4894C160.8 92.0894 160.7 92.6894 160.6 93.2894C160.4 94.8894 159.3 96.6894 157.3 98.6894C152.5 103.489 146.7 105.889 139.9 105.889C133.1 105.889 127.4 103.489 122.6 98.6894C117.8 93.8894 115.4 88.0894 115.4 81.3894C115.4 74.5894 117.8 68.7894 122.6 63.9894C127.4 59.1894 133.2 56.7894 139.9 56.7894C146.7 56.7894 152.5 59.1894 157.3 63.9894C159.3 65.9894 160.4 67.7894 160.6 69.3894C160.7 69.9894 160.8 70.5894 160.8 71.1894C160.8 73.4894 160 75.3894 158.4 76.9894C156.8 78.5894 154.9 79.3894 152.6 79.3894C150.3 79.3894 148.4 78.5894 146.8 76.9894C146.4 76.5894 146 76.0894 145.7 75.6894C144.1 74.0894 142.2 73.2894 139.9 73.2894C137.6 73.2894 135.7 74.0894 134.1 75.6894C132.5 77.2894 131.7 79.1894 131.7 81.4894C131.7 83.7894 132.5 85.6894 134.1 87.2894C135.7 88.8894 137.6 89.6894 139.9 89.6894C142.2 89.4894 144.2 88.6894 145.7 87.0894Z" fill="white"/>
<path d="M193.8 103.889C191.1 105.189 188.2 105.889 184.9 105.889C179.3 105.889 174.4 103.889 170.5 99.8894C166.5 95.8894 164.5 91.0894 164.5 85.4894C164.5 79.7894 166.5 74.9894 170.5 70.9894C174.5 66.9894 179.3 64.9894 184.9 64.9894C188.1 64.9894 191.1 65.5894 193.8 66.8894C195.1 65.5894 196.7 64.9894 198.6 64.9894C200.5 64.9894 202.1 65.6894 203.4 66.9894C204.7 68.2894 205.4 69.8894 205.4 71.7894V98.9894C205.4 100.889 204.7 102.489 203.4 103.789C202.1 105.089 200.5 105.789 198.6 105.789C196.7 105.889 195.1 105.189 193.8 103.889ZM189.8 90.1894C191.1 88.8894 191.8 87.2894 191.8 85.3894C191.8 83.4894 191.1 81.8894 189.8 80.5894C188.5 79.2894 186.9 78.5894 185 78.5894C183.1 78.5894 181.5 79.2894 180.2 80.5894C178.9 81.8894 178.2 83.4894 178.2 85.3894C178.2 87.2894 178.9 88.8894 180.2 90.1894C181.5 91.4894 183.1 92.1894 185 92.1894C186.8 92.1894 188.4 91.5894 189.8 90.1894Z" fill="white"/>
<path d="M223.1 79.6894V98.9894C223.1 100.889 222.4 102.489 221.1 103.789C219.8 105.089 218.2 105.789 216.3 105.789C214.4 105.789 212.8 105.089 211.5 103.789C210.2 102.489 209.5 100.889 209.5 98.9894V71.7894C209.5 69.8894 210.2 68.2894 211.5 66.9894C212.8 65.6894 214.4 64.9894 216.3 64.9894C218.2 64.9894 219.8 65.6894 221.1 66.9894C221.5 67.3894 221.9 67.8894 222.2 68.3894C222.9 67.6894 223.9 66.9894 225.1 66.1894C227.6 65.0894 230 64.7894 232.1 65.3894C234.2 65.9894 236 67.2894 237.1 69.1894C238.2 71.1894 238.5 73.1894 237.9 75.1894C237.3 77.2894 236 78.7894 234.1 79.9894C231.6 81.0894 229.3 81.0894 227.1 79.7894C225 78.3894 223.6 78.3894 223.1 79.6894Z" fill="white"/>
<path d="M260.4 92.0893C260.9 92.1893 261.4 92.2893 262 92.2893C263.9 92.2893 265.6 91.6893 267.3 90.3893C268.9 89.0893 270.7 88.4893 272.6 88.4893C274.5 88.4893 276.1 89.1893 277.4 90.4893C278.7 91.7893 279.4 93.3893 279.4 95.2893C279.4 95.7893 279.4 96.2893 279.3 96.7893C279.1 98.0893 278.2 99.5893 276.5 101.289C272.5 104.489 267.7 106.089 262 106.089C256.4 106.089 251.5 104.089 247.6 100.089C243.6 96.0893 241.6 91.2893 241.6 85.6893C241.6 79.9893 243.6 75.1893 247.6 71.1893C251.6 67.1893 256.4 65.1893 262 65.1893C267.7 65.1893 272.4 66.5893 276.1 69.4893C278 71.3893 279 73.2893 278.9 75.1893C279 77.1893 278.3 78.7893 276.9 79.6893L260.4 92.0893ZM264.3 79.1893C263.5 78.7893 262.7 78.5893 261.9 78.5893C260 78.5893 258.4 79.2893 257.1 80.5893C255.8 81.8893 255.1 83.4893 255.1 85.3893V85.7893L264.3 79.1893Z" fill="white"/>
<path d="M60.8 56.8893C60 56.3893 59 56.1893 58 56.1893C57 56.1893 56.1 56.3893 55.2 56.8893C55 56.9893 54.7 57.1893 54.5 57.2893C53.9 57.6893 53.4 58.1893 52.9 58.8893C52.2 59.8893 51.8 61.0893 51.8 62.3893C51.8 65.7893 54.6 68.4893 57.9 68.4893C61.1 68.4893 63.7 65.9893 64 62.8893C64 62.6893 64 62.5893 64 62.3893C64 61.7893 63.9 61.1893 63.7 60.5893C63.5 59.9893 63.2 59.3893 62.9 58.8893C62.7 58.6893 62.5 58.3893 62.3 58.1893L60.8 56.8893Z" fill="white"/>
<path d="M44.7 100.989C44.7 103.189 44.1 105.189 43 106.889C42.5 107.789 41.8 108.589 41.1 109.289C40.3 110.089 39.3 110.789 38.2 111.289C36.7 112.089 35 112.489 33.1 112.489C27.1 112.489 22.2 107.989 21.7 102.089C21.7 101.689 21.6 101.289 21.6 100.989C21.6 100.189 21.7 99.3894 21.8 98.6894C22 97.6894 22.3 96.6894 22.8 95.7894C24.7 92.0894 28.6 89.4894 33 89.4894C39.5 89.4894 44.7 94.6894 44.7 100.989Z" fill="white"/>
<path d="M93.7 100.989C93.7 101.589 93.7 102.089 93.6 102.689C92.8 108.189 88 112.489 82.2 112.489C80.5 112.489 78.9 112.089 77.4 111.389C76.3 110.889 75.3 110.189 74.4 109.389C73.6 108.689 73 107.889 72.4 106.989C71.3 105.189 70.6 103.189 70.6 100.889C70.6 94.5894 75.8 89.3894 82.1 89.3894C86.7 89.3894 90.7 92.0894 92.5 95.9894C92.9 96.8894 93.3 97.8894 93.4 98.9894C93.6 99.7894 93.7 100.389 93.7 100.989Z" fill="white"/>
</g>
<defs>
<clipPath id="clip0_1775_34">
<rect width="316" height="116" fill="white"/>
</clipPath>
</defs>
</svg>
