<svg width="20" height="20" viewBox="0 0 20 20" fill="none" xmlns="http://www.w3.org/2000/svg">
<path d="M2.66732 17.3334C2.16315 17.3334 1.73171 17.1541 1.37298 16.7953C1.01426 16.4366 0.834595 16.0049 0.833984 15.5001V4.50008C0.833984 3.99591 1.01365 3.56447 1.37298 3.20575C1.73232 2.84703 2.16376 2.66736 2.66732 2.66675H17.334C17.8382 2.66675 18.2699 2.84641 18.6292 3.20575C18.9886 3.56508 19.1679 3.99653 19.1673 4.50008V15.5001C19.1673 16.0042 18.988 16.436 18.6292 16.7953C18.2705 17.1547 17.8388 17.334 17.334 17.3334H2.66732ZM10.0007 10.9167L17.334 6.33341V4.50008L10.0007 9.08341L2.66732 4.50008V6.33341L10.0007 10.9167Z" fill="currentColor"/>
</svg>
