<svg width="512" height="512" viewBox="0 0 512 512" fill="none" xmlns="http://www.w3.org/2000/svg">
<g opacity="0.3">
<path d="M246 92.0108V218L181 104.184H181.301C184.611 104.184 188.523 104.488 192.435 104.792C200.259 105.705 208.083 106.618 215.907 104.488C223.731 102.358 230.352 97.4886 236.671 92.9237C238.176 91.7064 239.681 90.4892 241.486 89.5762C242.69 88.6632 243.894 88.9676 244.495 89.5762C244.796 89.5762 246 90.4892 246 92.0108Z" fill="#3D8BFC"/>
<path d="M254.539 251.068C251.517 251.068 248.797 251.676 246.078 253.197L248.193 256.846L249.402 259.279L263 283V253.501C260.583 251.676 257.561 251.068 254.539 251.068Z" fill="white"/>
<path d="M223 241H97.0425C95.5212 241 94.6085 240.101 94.3042 239.502C94 238.903 93.6958 237.705 94.6085 236.507C95.8255 235.009 97.0425 233.512 97.9552 231.714C102.519 225.424 107.387 219.134 109.517 211.046C111.646 203.258 110.733 195.171 110.125 187.682C109.517 183.488 109.212 179.594 109.212 176L223 241Z" fill="#3D8BFC"/>
<path d="M232 227L118 161.16C121.056 159.332 124.724 157.807 128.391 155.979C135.421 152.93 143.062 149.578 148.869 143.786C154.676 137.995 158.038 130.679 161.399 123.364C162.928 119.706 164.456 116.353 166.29 113.305C166.29 113.305 166.29 113 166.595 113L232 227Z" fill="#3D8BFC"/>
<path d="M263.295 253.106C260.869 251.602 257.836 251 254.803 251C251.77 251 249.041 251.602 246.311 253.106C245.705 253.407 244.795 254.008 244.189 254.309C242.369 255.512 240.852 257.016 239.336 259.122C237.213 262.13 236 265.74 236 269.65C236 279.878 244.492 288 254.5 288C264.205 288 272.09 280.48 273 271.154C273 270.553 273 270.252 273 269.65C273 267.846 272.697 266.041 272.09 264.236C271.484 262.431 270.574 260.626 269.664 259.122C269.057 258.52 268.451 257.618 267.844 257.016L263.295 253.106Z" fill="#3D8BFC"/>
<path d="M215 386.975C215 393.608 213.158 399.638 209.781 404.764C208.246 407.477 206.096 409.889 203.947 412C182.149 405.065 162.193 394.211 145 379.739C145.614 376.724 146.535 373.709 148.07 370.995C153.904 359.839 165.877 352 179.386 352C199.035 352.302 215 367.98 215 386.975Z" fill="#3D8BFC"/>
<path d="M363 381.585C346.127 395.615 326.843 406.595 305.45 413C303.039 410.865 301.231 408.425 299.424 405.68C296.109 400.19 294 394.09 294 387.075C294 367.86 309.668 352 328.651 352C342.511 352 354.563 360.235 359.987 372.13C361.493 375.18 362.397 378.23 363 381.585Z" fill="#3D8BFC"/>
<path d="M285.306 387.201C285.306 394.855 287.131 401.897 290.476 408.02C279.223 410.469 267.362 412 255.196 412C242.422 412 230.256 410.469 218.395 407.714C221.74 401.59 223.565 394.549 223.565 387.201C223.565 363.014 204.1 343.419 180.073 343.419C163.953 343.419 149.962 352.298 142.359 365.157C115.29 338.827 97.3456 302.7 94 262.899C94 261.368 94.6083 260.143 95.2166 259.531C95.8249 258.918 96.7373 258 98.5621 258H221.132C220.219 261.368 219.611 265.042 219.611 268.716C219.611 288.616 235.731 304.843 255.5 304.843C275.269 304.843 291.389 288.616 291.389 268.716C291.389 265.042 290.781 261.368 289.868 258H412.438C413.959 258 415.175 258.918 415.783 259.531C416.088 260.143 417 261.062 417 262.899C413.654 303.618 395.406 339.746 367.729 366.382C360.429 352.604 345.831 343.419 329.407 343.419C304.771 343.419 285.306 363.014 285.306 387.201Z" fill="#3D8BFC"/>
<path d="M215 387C215 393.696 213.156 399.783 209.775 404.957C208.238 407.696 206.087 410.13 203.935 412.261C201.476 414.696 198.403 416.826 195.022 418.348C190.411 420.783 185.186 422 179.346 422C160.905 422 145.844 408.304 144.307 390.348C144.307 389.13 144 387.913 144 387C144 384.565 144.307 382.13 144.615 380C145.229 376.957 146.152 373.913 147.688 371.174C153.528 359.913 165.515 352 179.039 352C199.017 352 215 367.826 215 387Z" fill="#3D8BFC"/>
<path d="M363 387.152C363 388.97 363 390.485 362.701 392.303C360.312 408.97 345.974 422 328.649 422C323.571 422 318.792 420.788 314.312 418.667C311.026 417.151 308.039 415.03 305.351 412.606C302.961 410.485 301.169 408.061 299.377 405.333C296.091 399.879 294 393.818 294 386.848C294 367.758 309.532 352 328.351 352C342.091 352 354.039 360.182 359.416 372C360.61 374.727 361.805 377.758 362.104 381.091C362.701 383.515 363 385.333 363 387.152Z" fill="#3D8BFC"/>
</g>
</svg>
